<svg width="1152" height="729" viewBox="0 0 1152 729" fill="none" xmlns="http://www.w3.org/2000/svg">
<g clip-path="url(#clip0)">
<rect width="1152" height="729" fill="url(#paint0_linear)"/>
<g filter="url(#filter0_ii)">
<path d="M998.422 467.353C1004.84 468.889 1050.27 484.045 1068.09 489.643C1069.27 490.015 1069.83 491.342 1069.28 492.455C1062.42 506.308 1039.99 553.836 1020.12 584.4C999.057 616.79 1014.74 624.565 1000.89 622.859C969.991 616.839 947.76 607.001 936.377 599.469C928.123 594.008 934.648 589.485 943 584.174C974.481 564.154 998.77 491.324 999.752 489.896C1000.87 488.264 991.792 470.006 998.422 467.353Z" fill="#B25D7E"/>
</g>
<g filter="url(#filter1_dii)">
<path fill-rule="evenodd" clip-rule="evenodd" d="M1039.55 478.864C1021.18 473.044 1001.96 466.957 997.922 466.022C993.307 467.848 996.11 476.904 997.998 483.003C998.54 484.755 999.007 486.263 999.201 487.285L1061.4 508.215C1063.38 504.28 1065.15 500.737 1066.66 497.723C1068.03 494.978 1069.18 492.671 1070.07 490.906C1070.64 489.785 1070.08 488.437 1068.87 488.07C1061.94 485.955 1050.91 482.461 1039.55 478.864Z" fill="#B25D7E"/>
</g>
<g filter="url(#filter2_ii)">
<path d="M1068.96 490.6C1097.56 472.765 1107.02 421.826 1108.17 398.586C1091.11 391.065 1051.48 374.766 1029.47 369.73C1039.43 395.801 1012.46 445.76 997.735 467.481C1014.1 472.519 1051.25 484.196 1068.96 490.6Z" fill="#C77287"/>
</g>
<g filter="url(#filter3_ii)">
<path d="M820.404 498.211C851.969 418.918 898.39 292.66 909.696 234.541C948.4 362.678 1020.8 361.367 1028.65 369.169C1036.51 376.971 1028.74 431.112 997.735 467.481C935.202 441.326 862.247 462.681 820.404 498.211Z" fill="#D5CBD6"/>
</g>
<g filter="url(#filter4_ii)">
<path d="M1107.47 398.419C1105.81 421.514 1095.12 474.747 1068.97 490.419C1091.1 498.423 1140.09 451.482 1107.47 398.419Z" fill="#D5CAD6"/>
</g>
<path d="M789.469 491.919C791.986 440.176 812.449 311.589 882.104 210.941C890.914 296.904 814.255 487.325 789.469 491.919Z" fill="#EBC1CF"/>
<path d="M498.469 -7.08154L874.47 305.418L839.97 424.918L498.469 729.418H-0.0302734V-7.08153L498.469 -7.08154Z" fill="#F2F2F2"/>
<g filter="url(#filter5_ii)">
<path d="M821.198 497.123C812.815 507.223 796.482 497.74 789.469 491.919C846.325 414.438 880.219 227.669 880.548 214.077C880.878 200.485 908.573 203.898 910.742 215.603C923.755 266.603 831.677 484.499 821.198 497.123Z" fill="#C26A82"/>
</g>
<path d="M587.969 11.4186L748.469 145.919" stroke="#F2F2F2" stroke-width="3"/>
<path d="M731.469 543.419L587.469 678.919" stroke="#F2F2F2" stroke-width="3"/>
<path d="M739.969 592.419L774.469 559.419" stroke="#F2F2F2" stroke-width="3"/>
<path d="M756.969 173.419L803.969 211.419" stroke="#F2F2F2" stroke-width="3"/>
</g>
<defs>
<filter id="filter0_ii" x="901.937" y="449.416" width="199.004" height="191.628" filterUnits="userSpaceOnUse" color-interpolation-filters="sRGB">
<feFlood flood-opacity="0" result="BackgroundImageFix"/>
<feBlend mode="normal" in="SourceGraphic" in2="BackgroundImageFix" result="shape"/>
<feColorMatrix in="SourceAlpha" type="matrix" values="0 0 0 0 0 0 0 0 0 0 0 0 0 0 0 0 0 0 127 0" result="hardAlpha"/>
<feOffset dx="10" dy="-6"/>
<feGaussianBlur stdDeviation="7"/>
<feComposite in2="hardAlpha" operator="arithmetic" k2="-1" k3="1"/>
<feColorMatrix type="matrix" values="0 0 0 0 0.490196 0 0 0 0 0.203922 0 0 0 0 0.321569 0 0 0 1 0"/>
<feBlend mode="normal" in2="shape" result="effect1_innerShadow"/>
<feColorMatrix in="SourceAlpha" type="matrix" values="0 0 0 0 0 0 0 0 0 0 0 0 0 0 0 0 0 0 127 0" result="hardAlpha"/>
<feOffset dx="-10" dy="6"/>
<feGaussianBlur stdDeviation="6"/>
<feComposite in2="hardAlpha" operator="arithmetic" k2="-1" k3="1"/>
<feColorMatrix type="matrix" values="0 0 0 0 0.858824 0 0 0 0 0.65098 0 0 0 0 0.733333 0 0 0 1 0"/>
<feBlend mode="normal" in2="effect1_innerShadow" result="effect2_innerShadow"/>
</filter>
<filter id="filter1_dii" x="984.302" y="446.843" width="98.9973" height="78.0156" filterUnits="userSpaceOnUse" color-interpolation-filters="sRGB">
<feFlood flood-opacity="0" result="BackgroundImageFix"/>
<feColorMatrix in="SourceAlpha" type="matrix" values="0 0 0 0 0 0 0 0 0 0 0 0 0 0 0 0 0 0 127 0"/>
<feOffset dy="-7"/>
<feColorMatrix type="matrix" values="0 0 0 0 0.529412 0 0 0 0 0.219608 0 0 0 0 0.360784 0 0 0 1 0"/>
<feBlend mode="normal" in2="BackgroundImageFix" result="effect1_dropShadow"/>
<feBlend mode="normal" in="SourceGraphic" in2="effect1_dropShadow" result="shape"/>
<feColorMatrix in="SourceAlpha" type="matrix" values="0 0 0 0 0 0 0 0 0 0 0 0 0 0 0 0 0 0 127 0" result="hardAlpha"/>
<feOffset dx="10" dy="-6"/>
<feGaussianBlur stdDeviation="7"/>
<feComposite in2="hardAlpha" operator="arithmetic" k2="-1" k3="1"/>
<feColorMatrix type="matrix" values="0 0 0 0 0.490196 0 0 0 0 0.203922 0 0 0 0 0.321569 0 0 0 1 0"/>
<feBlend mode="normal" in2="shape" result="effect2_innerShadow"/>
<feColorMatrix in="SourceAlpha" type="matrix" values="0 0 0 0 0 0 0 0 0 0 0 0 0 0 0 0 0 0 127 0" result="hardAlpha"/>
<feOffset dx="-10" dy="6"/>
<feGaussianBlur stdDeviation="6"/>
<feComposite in2="hardAlpha" operator="arithmetic" k2="-1" k3="1"/>
<feColorMatrix type="matrix" values="0 0 0 0 0.858824 0 0 0 0 0.65098 0 0 0 0 0.733333 0 0 0 0.6 0"/>
<feBlend mode="normal" in2="effect2_innerShadow" result="effect3_innerShadow"/>
</filter>
<filter id="filter2_ii" x="976.273" y="347.586" width="152.082" height="164.008" filterUnits="userSpaceOnUse" color-interpolation-filters="sRGB">
<feFlood flood-opacity="0" result="BackgroundImageFix"/>
<feBlend mode="normal" in="SourceGraphic" in2="BackgroundImageFix" result="shape"/>
<feColorMatrix in="SourceAlpha" type="matrix" values="0 0 0 0 0 0 0 0 0 0 0 0 0 0 0 0 0 0 127 0" result="hardAlpha"/>
<feOffset dx="5" dy="9"/>
<feGaussianBlur stdDeviation="9.5"/>
<feComposite in2="hardAlpha" operator="arithmetic" k2="-1" k3="1"/>
<feColorMatrix type="matrix" values="0 0 0 0 0.933333 0 0 0 0 0.815686 0 0 0 0 0.854902 0 0 0 0.6 0"/>
<feBlend mode="normal" in2="shape" result="effect1_innerShadow"/>
<feColorMatrix in="SourceAlpha" type="matrix" values="0 0 0 0 0 0 0 0 0 0 0 0 0 0 0 0 0 0 127 0" result="hardAlpha"/>
<feOffset dx="-5" dy="-9"/>
<feGaussianBlur stdDeviation="9"/>
<feComposite in2="hardAlpha" operator="arithmetic" k2="-1" k3="1"/>
<feColorMatrix type="matrix" values="0 0 0 0 0.462745 0 0 0 0 0.156863 0 0 0 0 0.313726 0 0 0 1 0"/>
<feBlend mode="normal" in2="effect1_innerShadow" result="effect2_innerShadow"/>
</filter>
<filter id="filter3_ii" x="763.124" y="199.467" width="296.358" height="314.809" filterUnits="userSpaceOnUse" color-interpolation-filters="sRGB">
<feFlood flood-opacity="0" result="BackgroundImageFix"/>
<feBlend mode="normal" in="SourceGraphic" in2="BackgroundImageFix" result="shape"/>
<feColorMatrix in="SourceAlpha" type="matrix" values="0 0 0 0 0 0 0 0 0 0 0 0 0 0 0 0 0 0 127 0" result="hardAlpha"/>
<feOffset dx="13" dy="19"/>
<feGaussianBlur stdDeviation="7"/>
<feComposite in2="hardAlpha" operator="arithmetic" k2="-1" k3="1"/>
<feColorMatrix type="matrix" values="0 0 0 0 0.94902 0 0 0 0 0.901961 0 0 0 0 0.94902 0 0 0 1 0"/>
<feBlend mode="normal" in2="shape" result="effect1_innerShadow"/>
<feColorMatrix in="SourceAlpha" type="matrix" values="0 0 0 0 0 0 0 0 0 0 0 0 0 0 0 0 0 0 127 0" result="hardAlpha"/>
<feOffset dx="-13" dy="-19"/>
<feGaussianBlur stdDeviation="9"/>
<feComposite in2="hardAlpha" operator="arithmetic" k2="-1" k3="1"/>
<feColorMatrix type="matrix" values="0 0 0 0 0.721569 0 0 0 0 0.623529 0 0 0 0 0.741176 0 0 0 1 0"/>
<feBlend mode="normal" in2="effect1_innerShadow" result="effect2_innerShadow"/>
</filter>
<filter id="filter4_ii" x="1052.76" y="395.48" width="78.3822" height="105.118" filterUnits="userSpaceOnUse" color-interpolation-filters="sRGB">
<feFlood flood-opacity="0" result="BackgroundImageFix"/>
<feBlend mode="normal" in="SourceGraphic" in2="BackgroundImageFix" result="shape"/>
<feColorMatrix in="SourceAlpha" type="matrix" values="0 0 0 0 0 0 0 0 0 0 0 0 0 0 0 0 0 0 127 0" result="hardAlpha"/>
<feOffset dx="3" dy="8"/>
<feGaussianBlur stdDeviation="4"/>
<feComposite in2="hardAlpha" operator="arithmetic" k2="-1" k3="1"/>
<feColorMatrix type="matrix" values="0 0 0 0 0.933333 0 0 0 0 0.92549 0 0 0 0 0.941176 0 0 0 1 0"/>
<feBlend mode="normal" in2="shape" result="effect1_innerShadow"/>
<feColorMatrix in="SourceAlpha" type="matrix" values="0 0 0 0 0 0 0 0 0 0 0 0 0 0 0 0 0 0 127 0" result="hardAlpha"/>
<feOffset dx="-1" dy="-2"/>
<feGaussianBlur stdDeviation="4.5"/>
<feComposite in2="hardAlpha" operator="arithmetic" k2="-1" k3="1"/>
<feColorMatrix type="matrix" values="0 0 0 0 0.701961 0 0 0 0 0.498039 0 0 0 0 0.686275 0 0 0 1 0"/>
<feBlend mode="normal" in2="effect1_innerShadow" result="effect2_innerShadow"/>
</filter>
<filter id="filter5_ii" x="731.474" y="180.04" width="237.323" height="345.381" filterUnits="userSpaceOnUse" color-interpolation-filters="sRGB">
<feFlood flood-opacity="0" result="BackgroundImageFix"/>
<feBlend mode="normal" in="SourceGraphic" in2="BackgroundImageFix" result="shape"/>
<feColorMatrix in="SourceAlpha" type="matrix" values="0 0 0 0 0 0 0 0 0 0 0 0 0 0 0 0 0 0 127 0" result="hardAlpha"/>
<feOffset dx="10" dy="30"/>
<feGaussianBlur stdDeviation="10"/>
<feComposite in2="hardAlpha" operator="arithmetic" k2="-1" k3="1"/>
<feColorMatrix type="matrix" values="0 0 0 0 0.945098 0 0 0 0 0.839216 0 0 0 0 0.866667 0 0 0 1 0"/>
<feBlend mode="normal" in2="shape" result="effect1_innerShadow"/>
<feColorMatrix in="SourceAlpha" type="matrix" values="0 0 0 0 0 0 0 0 0 0 0 0 0 0 0 0 0 0 127 0" result="hardAlpha"/>
<feOffset dx="-10" dy="-30"/>
<feGaussianBlur stdDeviation="11"/>
<feComposite in2="hardAlpha" operator="arithmetic" k2="-1" k3="1"/>
<feColorMatrix type="matrix" values="0 0 0 0 0.576471 0 0 0 0 0.203922 0 0 0 0 0.435294 0 0 0 1 0"/>
<feBlend mode="normal" in2="effect1_innerShadow" result="effect2_innerShadow"/>
</filter>
<linearGradient id="paint0_linear" x1="576" y1="0" x2="576" y2="729" gradientUnits="userSpaceOnUse">
<stop stop-color="#0F4048"/>
<stop offset="1" stop-color="#166B6F"/>
</linearGradient>
<clipPath id="clip0">
<rect width="1152" height="729" fill="white"/>
</clipPath>
</defs>
</svg>
