<svg width="52" height="44" viewBox="0 0 52 44" fill="none" xmlns="http://www.w3.org/2000/svg">
<path fill-rule="evenodd" clip-rule="evenodd" d="M0 0H52V44H0V0ZM15.1115 31.6996H7.89091V35.7546H15.1115V36.9884H6.38206V25.5463H15.1115V26.7879H7.89091V30.4658H15.1115V31.6996ZM23.094 32.3597H25.7816L28.265 36.9884H29.8838V36.8941L27.1962 32.0375C27.8825 31.7756 28.4169 31.38 28.7994 30.8509C29.187 30.3217 29.3809 29.7009 29.3809 28.9884C29.3809 27.8672 29.0325 27.0132 28.3357 26.4265C27.6441 25.8397 26.654 25.5463 25.3651 25.5463H21.5773V36.9884H23.094V32.3597ZM25.4123 31.1259H23.094V26.7879H25.4044C26.2008 26.7932 26.8085 26.9844 27.2276 27.3616C27.652 27.7388 27.8642 28.2811 27.8642 28.9884C27.8642 29.638 27.6415 30.1567 27.1962 30.5444C26.7561 30.9321 26.1615 31.1259 25.4123 31.1259ZM40.4478 31.848C39.1537 31.476 38.2107 31.0202 37.6187 30.4806C37.0319 29.9357 36.7385 29.2651 36.7385 28.4688C36.7385 27.5677 37.0974 26.8237 37.8151 26.2369C38.5381 25.6449 39.4759 25.3489 40.6285 25.3489C41.4144 25.3489 42.1138 25.5008 42.7268 25.8047C43.345 26.1086 43.8217 26.5277 44.157 27.0621C44.4976 27.5965 44.6679 28.1806 44.6679 28.8146H43.1511C43.1511 28.123 42.9311 27.5808 42.491 27.1878C42.0509 26.7897 41.4301 26.5906 40.6285 26.5906C39.8846 26.5906 39.303 26.7556 38.8839 27.0857C38.47 27.4105 38.2631 27.8637 38.2631 28.4452C38.2631 28.9115 38.4595 29.307 38.8525 29.6319C39.2506 29.9514 39.9239 30.2448 40.8721 30.512C41.8257 30.7792 42.5696 31.0752 43.104 31.4C43.6436 31.7196 44.0418 32.0942 44.2985 32.5238C44.5605 32.9534 44.6914 33.459 44.6914 34.0405C44.6914 34.9679 44.3299 35.7118 43.6069 36.2724C42.8839 36.8277 41.9173 37.1054 40.7071 37.1054C39.9213 37.1054 39.1878 36.9561 38.5067 36.6575C37.8256 36.3536 37.2991 35.9397 36.9271 35.4158C36.5604 34.8919 36.377 34.2973 36.377 33.6319H37.8937C37.8937 34.3235 38.1478 34.8709 38.656 35.2743C39.1694 35.6725 39.8531 35.8716 40.7071 35.8716C41.5035 35.8716 42.1138 35.7092 42.5382 35.3844C42.9625 35.0595 43.1747 34.6168 43.1747 34.0563C43.1747 33.4957 42.9783 33.0635 42.5853 32.7596C42.1924 32.4505 41.4799 32.1466 40.4478 31.848ZM10.6896 9.10608L6.94894 18.4421H5V6.99997H6.50885V11.4558L6.35954 16.2417L10.1081 6.99997H11.2633L15.0197 16.2653L14.8783 11.4558V6.99997H16.3871V18.4421H14.4303L10.6896 9.10608ZM36.7471 6.99998L40.4878 16.336L44.2285 6.99998H46.1853V18.4421H44.6765V13.9863L44.8179 9.17681L41.0615 18.4421H39.9063L36.1577 9.20039L36.307 13.9863V18.4421H34.7982V6.99998H36.7471ZM23.223 15.4558H28.0168L29.1091 18.4421H30.6573L26.28 6.99998H24.9598L20.5904 18.4421H22.1464L23.223 15.4558ZM27.5688 14.2142H23.6788L25.6199 8.86247L27.5688 14.2142Z" fill="#47494F"/>
</svg>
