<svg width="171" height="144" viewBox="0 0 171 144" fill="none" xmlns="http://www.w3.org/2000/svg">
<rect x="1.04492" y="0.5" width="169.182" height="143" stroke="#F6F5F5"/>
<path d="M49.1154 106.884H23.0712V121.511H49.1154V125.961H17.6289V84.6899H49.1154V89.1685H23.0712V102.434H49.1154V106.884Z" fill="#F6F5F5"/>
<path d="M87.6024 109.266H77.9082V125.961H72.4375V84.6899H86.1C90.7487 84.6899 94.3202 85.7482 96.8147 87.8646C99.328 89.9811 100.585 93.0613 100.585 97.1053C100.585 99.6753 99.8854 101.915 98.487 103.823C97.1076 105.732 95.1801 107.158 92.7046 108.103L102.399 125.621V125.961H96.5595L87.6024 109.266ZM77.9082 104.815H86.2701C88.9724 104.815 91.1172 104.116 92.7046 102.718C94.3108 101.319 95.1139 99.4485 95.1139 97.1053C95.1139 94.5542 94.3486 92.5983 92.8179 91.2378C91.3062 89.8772 89.1141 89.1874 86.2418 89.1685H77.9082V104.815Z" fill="#F6F5F5"/>
<path d="M140.502 107.42C135.835 106.078 132.433 104.434 130.298 102.488C128.181 100.522 127.123 98.1036 127.123 95.2312C127.123 91.9809 128.418 89.2975 131.007 87.1811C133.614 85.0457 136.997 83.978 141.154 83.978C143.989 83.978 146.512 84.526 148.723 85.6221C150.952 86.7181 152.672 88.2299 153.881 90.1574C155.11 92.0848 155.724 94.1919 155.724 96.4784H150.253C150.253 93.984 149.46 92.0282 147.872 90.6109C146.285 89.1747 144.046 88.4566 141.154 88.4566C138.471 88.4566 136.373 89.0519 134.862 90.2424C133.369 91.414 132.622 93.0486 132.622 95.1462C132.622 96.828 133.331 98.2547 134.748 99.4263C136.184 100.579 138.613 101.637 142.033 102.601C145.472 103.565 148.156 104.632 150.083 105.804C152.03 106.957 153.466 108.308 154.392 109.857C155.336 111.407 155.809 113.231 155.809 115.328C155.809 118.673 154.505 121.356 151.897 123.378C149.289 125.381 145.803 126.383 141.438 126.383C138.603 126.383 135.958 125.844 133.501 124.767C131.044 123.671 129.145 122.178 127.804 120.289C126.481 118.399 125.819 116.254 125.819 113.854H131.29C131.29 116.349 132.207 118.323 134.04 119.778C135.891 121.215 138.358 121.933 141.438 121.933C144.31 121.933 146.512 121.347 148.042 120.175C149.573 119.004 150.338 117.407 150.338 115.385C150.338 113.363 149.63 111.804 148.212 110.708C146.795 109.593 144.225 108.497 140.502 107.42Z" fill="#F6F5F5"/>
<path d="M19.6752 59.0656L33.1677 25.3912L46.6601 59.0656H53.7182V17.7946H48.2758V33.8665L48.7861 51.2139L35.2369 17.7946H31.0701L17.5493 51.1289L18.0878 33.8665V17.7946H12.6455V59.0656H19.6752Z" fill="#F6F5F5"/>
<path d="M127.153 17.7946L140.645 51.469L154.138 17.7946H161.196V59.0656H155.753V42.9937L156.264 25.6463L142.714 59.0656H138.548L125.027 25.7313L125.565 42.9937V59.0656H120.123V17.7946H127.153Z" fill="#F6F5F5"/>
<path d="M95.6635 48.2943H78.3727L74.4894 59.0656H68.877L84.6371 17.7946H89.3991L105.188 59.0656H99.6035L95.6635 48.2943ZM80.0167 43.8157H94.0478L87.0181 24.5124L80.0167 43.8157Z" fill="#F6F5F5"/>
</svg>
