<svg width="57" height="48" viewBox="0 0 57 48" fill="none" xmlns="http://www.w3.org/2000/svg">
<rect x="0.5" y="0.5" width="55.7273" height="47" stroke="#F6F5F5"/>
<path d="M16.1898 35.6282H7.50845V40.5036H16.1898V41.987H5.69434V28.23H16.1898V29.7228H7.50845V34.1447H16.1898V35.6282Z" fill="#F6F5F5"/>
<path d="M29.0188 36.4218H25.7874V41.987H23.9639V28.23H28.518C30.0676 28.23 31.2581 28.5827 32.0896 29.2882C32.9274 29.9937 33.3462 31.0204 33.3462 32.3684C33.3462 33.2251 33.1132 33.9715 32.647 34.6077C32.1872 35.2439 31.5447 35.7195 30.7196 36.0344L33.9509 41.8736V41.987H32.0045L29.0188 36.4218ZM25.7874 34.9384H28.5747C29.4755 34.9384 30.1904 34.7054 30.7196 34.2392C31.255 33.7731 31.5227 33.1495 31.5227 32.3684C31.5227 31.5181 31.2676 30.8661 30.7573 30.4126C30.2534 29.9591 29.5227 29.7291 28.5653 29.7228H25.7874V34.9384Z" fill="#F6F5F5"/>
<path d="M46.6521 35.8066C45.0963 35.3594 43.9625 34.8114 43.2507 34.1626C42.5452 33.5075 42.1924 32.7012 42.1924 31.7437C42.1924 30.6603 42.6239 29.7658 43.4869 29.0604C44.3562 28.3486 45.4837 27.9927 46.8695 27.9927C47.8143 27.9927 48.6552 28.1753 49.3922 28.5407C50.1355 28.906 50.7087 29.41 51.1118 30.0525C51.5213 30.6949 51.726 31.3973 51.726 32.1595H49.9024C49.9024 31.328 49.6379 30.6761 49.1088 30.2036C48.5796 29.7249 47.8332 29.4855 46.8695 29.4855C45.975 29.4855 45.2758 29.684 44.7719 30.0808C44.2743 30.4713 44.0255 31.0162 44.0255 31.7154C44.0255 32.276 44.2617 32.7516 44.7341 33.1421C45.2128 33.5264 46.0222 33.8791 47.1624 34.2003C48.3088 34.5216 49.2032 34.8775 49.8457 35.268C50.4945 35.6523 50.9733 36.1026 51.2819 36.6192C51.5969 37.1357 51.7543 37.7435 51.7543 38.4427C51.7543 39.5577 51.3197 40.4521 50.4504 41.1261C49.5812 41.7938 48.419 42.1276 46.9639 42.1276C46.0191 42.1276 45.1372 41.9481 44.3184 41.5891C43.4995 41.2237 42.8664 40.7261 42.4192 40.0962C41.9783 39.4663 41.7578 38.7514 41.7578 37.9514H43.5814C43.5814 38.7829 43.8869 39.4411 44.4979 39.9261C45.1152 40.4049 45.9372 40.6442 46.9639 40.6442C47.9214 40.6442 48.6552 40.449 49.1654 40.0584C49.6757 39.6679 49.9308 39.1356 49.9308 38.4616C49.9308 37.7876 49.6946 37.268 49.2221 36.9026C48.7497 36.531 47.893 36.1656 46.6521 35.8066Z" fill="#F6F5F5"/>
<path d="M6.37643 19.6885L10.8739 8.46372L15.3714 19.6885H17.7241V5.93152H15.91V11.2888L16.0801 17.0713L11.5637 5.93152H10.1747L5.6678 17.043L5.84732 11.2888V5.93152H4.0332V19.6885H6.37643Z" fill="#F6F5F5"/>
<path d="M42.2026 5.93152L46.7001 17.1563L51.1976 5.93152H53.5503V19.6885H51.7362V14.3312L51.9062 8.54876L47.3898 19.6885H46.0009L41.494 8.5771L41.6735 14.3312V19.6885H39.8594V5.93152H42.2026Z" fill="#F6F5F5"/>
<path d="M31.7062 16.0981H25.9426L24.6481 19.6885H22.7773L28.0307 5.93152H29.6181L34.8809 19.6885H33.0195L31.7062 16.0981ZM26.4906 14.6053H31.1676L28.8244 8.17082L26.4906 14.6053Z" fill="#F6F5F5"/>
</svg>
