<svg width="97" height="74" viewBox="0 0 97 74" fill="none" xmlns="http://www.w3.org/2000/svg">
<mask id="path-1-inside-1" fill="white">
<path fill-rule="evenodd" clip-rule="evenodd" d="M4 0C1.79086 0 0 1.79086 0 4V54.1149C0 56.3241 1.79086 58.1149 4 58.1149H36.0911C37.4962 58.1149 38.7982 58.8521 39.5211 60.057L47.1016 72.6911C47.8784 73.9858 49.7547 73.9858 50.5315 72.6911L58.112 60.057C58.8349 58.8521 60.137 58.1149 61.542 58.1149H92.4708C94.6799 58.1149 96.4708 56.3241 96.4708 54.1149V4C96.4708 1.79086 94.6799 0 92.4708 0H4ZM30 27.2023C30 17.9773 42.3253 16.4639 48.4149 24.9324C54.516 16.4639 66 18.0472 66 27.2023C66 33.02 54.6751 41.5945 50.1419 45.0268C49.2773 45.6814 48.6597 46.149 48.4149 46.3747C48.1517 46.1303 47.4256 45.6022 46.4052 44.86C41.5434 41.3239 30 32.9279 30 27.2023Z"/>
</mask>
<path fill-rule="evenodd" clip-rule="evenodd" d="M4 0C1.79086 0 0 1.79086 0 4V54.1149C0 56.3241 1.79086 58.1149 4 58.1149H36.0911C37.4962 58.1149 38.7982 58.8521 39.5211 60.057L47.1016 72.6911C47.8784 73.9858 49.7547 73.9858 50.5315 72.6911L58.112 60.057C58.8349 58.8521 60.137 58.1149 61.542 58.1149H92.4708C94.6799 58.1149 96.4708 56.3241 96.4708 54.1149V4C96.4708 1.79086 94.6799 0 92.4708 0H4ZM30 27.2023C30 17.9773 42.3253 16.4639 48.4149 24.9324C54.516 16.4639 66 18.0472 66 27.2023C66 33.02 54.6751 41.5945 50.1419 45.0268C49.2773 45.6814 48.6597 46.149 48.4149 46.3747C48.1517 46.1303 47.4256 45.6022 46.4052 44.86C41.5434 41.3239 30 32.9279 30 27.2023Z" fill="#138085" fill-opacity="0.43"/>
<path d="M39.5211 60.057L42.0936 58.5135L42.0936 58.5135L39.5211 60.057ZM47.1016 72.6911L49.6741 71.1476L49.674 71.1476L47.1016 72.6911ZM50.5315 72.6911L47.9591 71.1476L50.5315 72.6911ZM58.112 60.057L60.6845 61.6004L58.112 60.057ZM48.4149 24.9324L45.9793 26.6839L48.4127 30.0678L50.849 26.686L48.4149 24.9324ZM50.1419 45.0268L48.331 42.635L50.1419 45.0268ZM48.4149 46.3747L46.3738 48.5733L48.408 50.4618L50.4486 48.5802L48.4149 46.3747ZM46.4052 44.86L48.1699 42.4339L46.4052 44.86ZM3 4C3 3.44772 3.44771 3 4 3V-3C0.13401 -3 -3 0.134 -3 4H3ZM3 54.1149V4H-3V54.1149H3ZM4 55.1149C3.44772 55.1149 3 54.6672 3 54.1149H-3C-3 57.9809 0.134012 61.1149 4 61.1149V55.1149ZM36.0911 55.1149H4V61.1149H36.0911V55.1149ZM42.0936 58.5135C40.8285 56.405 38.5499 55.1149 36.0911 55.1149V61.1149C36.4424 61.1149 36.7679 61.2992 36.9486 61.6004L42.0936 58.5135ZM49.674 71.1476L42.0936 58.5135L36.9486 61.6004L44.5291 74.2346L49.674 71.1476ZM47.9591 71.1476C48.3475 70.5003 49.2856 70.5003 49.6741 71.1476L44.5291 74.2346C46.4711 77.4713 51.162 77.4713 53.104 74.2346L47.9591 71.1476ZM55.5396 58.5135L47.9591 71.1476L53.104 74.2346L60.6845 61.6004L55.5396 58.5135ZM61.542 55.1149C59.0832 55.1149 56.8046 56.405 55.5396 58.5135L60.6845 61.6004C60.8652 61.2992 61.1907 61.1149 61.542 61.1149V55.1149ZM92.4708 55.1149H61.542V61.1149H92.4708V55.1149ZM93.4708 54.1149C93.4708 54.6672 93.0231 55.1149 92.4708 55.1149V61.1149C96.3368 61.1149 99.4708 57.9809 99.4708 54.1149H93.4708ZM93.4708 4V54.1149H99.4708V4H93.4708ZM92.4708 3C93.0231 3 93.4708 3.44772 93.4708 4H99.4708C99.4708 0.134002 96.3368 -3 92.4708 -3V3ZM4 3H92.4708V-3H4V3ZM50.8506 23.1809C47.1938 18.0957 41.5345 15.8422 36.5574 16.4548C34.0589 16.7623 31.6534 17.8101 29.8536 19.6907C28.0255 21.601 27 24.1879 27 27.2023H33C33 25.6042 33.5152 24.5426 34.1884 23.8392C34.8899 23.1062 35.9463 22.5752 37.2903 22.4098C39.9983 22.0766 43.5464 23.3007 45.9793 26.6839L50.8506 23.1809ZM69 27.2023C69 24.2596 68.0634 21.7042 66.3412 19.7887C64.6347 17.8906 62.3248 16.8073 59.8896 16.4845C55.0348 15.841 49.5998 18.1556 45.9809 23.1788L50.849 26.686C53.3311 23.2408 56.6887 22.1127 59.1012 22.4325C60.2995 22.5914 61.242 23.0912 61.8794 23.8002C62.5011 24.4918 63 25.5674 63 27.2023H69ZM51.9528 47.4186C54.2064 45.7123 58.3125 42.6073 61.861 39.1612C63.6332 37.44 65.351 35.5536 66.6452 33.639C67.8936 31.7919 69 29.5541 69 27.2023H63C63 27.7593 62.6908 28.7749 61.6741 30.2791C60.7032 31.7156 59.3064 33.2782 57.6808 34.8569C54.4335 38.0106 50.6106 40.909 48.331 42.635L51.9528 47.4186ZM50.4486 48.5802C50.4401 48.5881 50.4671 48.5632 50.5558 48.4912C50.6372 48.4252 50.7449 48.3403 50.8827 48.2336C51.16 48.0189 51.5157 47.7495 51.9528 47.4186L48.331 42.635C47.5555 43.2222 46.765 43.8154 46.3813 44.1692L50.4486 48.5802ZM44.6406 47.2862C45.1565 47.6614 45.5756 47.9663 45.8991 48.2078C46.2636 48.48 46.3797 48.5787 46.3738 48.5733L50.4561 44.1761C50.0214 43.7726 49.0737 43.0913 48.1699 42.4339L44.6406 47.2862ZM27 27.2023C27 29.5643 28.1492 31.7894 29.4254 33.6048C30.7519 35.4918 32.5129 37.3492 34.3338 39.0466C37.9801 42.4457 42.225 45.5292 44.6406 47.2862L48.1699 42.4339C45.7237 40.6547 41.766 37.7722 38.4251 34.6578C36.7524 33.0985 35.3237 31.5623 34.3339 30.1543C33.2937 28.6745 33 27.7031 33 27.2023H27Z" fill="#138085" mask="url(#path-1-inside-1)"/>
</svg>
