<svg width="62" height="47" viewBox="0 0 62 47" fill="none" xmlns="http://www.w3.org/2000/svg">
<mask id="path-1-inside-1" fill="white">
<path fill-rule="evenodd" clip-rule="evenodd" d="M4 0C1.79086 0 0 1.79086 0 4V33.0295C0 35.2386 1.79086 37.0295 4 37.0295H22.1747C23.5797 37.0295 24.8818 37.7667 25.6047 38.9715L29.3898 45.28C30.1666 46.5747 32.0429 46.5747 32.8197 45.28L36.6048 38.9715C37.3277 37.7667 38.6298 37.0295 40.0348 37.0295H57.4689C59.678 37.0295 61.4689 35.2386 61.4689 33.0294V4C61.4689 1.79086 59.678 0 57.4689 0H4ZM22 17.775C22 13.3362 27.8203 12.6081 30.6959 16.6828C33.577 12.6081 39 13.3699 39 17.775C39 20.5742 33.6521 24.7 31.5114 26.3514C31.1032 26.6664 30.8115 26.8914 30.6959 27C30.5716 26.8824 30.2288 26.6283 29.7469 26.2712C27.4511 24.5697 22 20.5299 22 17.775Z"/>
</mask>
<path fill-rule="evenodd" clip-rule="evenodd" d="M4 0C1.79086 0 0 1.79086 0 4V33.0295C0 35.2386 1.79086 37.0295 4 37.0295H22.1747C23.5797 37.0295 24.8818 37.7667 25.6047 38.9715L29.3898 45.28C30.1666 46.5747 32.0429 46.5747 32.8197 45.28L36.6048 38.9715C37.3277 37.7667 38.6298 37.0295 40.0348 37.0295H57.4689C59.678 37.0295 61.4689 35.2386 61.4689 33.0294V4C61.4689 1.79086 59.678 0 57.4689 0H4ZM22 17.775C22 13.3362 27.8203 12.6081 30.6959 16.6828C33.577 12.6081 39 13.3699 39 17.775C39 20.5742 33.6521 24.7 31.5114 26.3514C31.1032 26.6664 30.8115 26.8914 30.6959 27C30.5716 26.8824 30.2288 26.6283 29.7469 26.2712C27.4511 24.5697 22 20.5299 22 17.775Z" fill="#138085" fill-opacity="0.43"/>
<path d="M25.6047 38.9715L23.8897 40.0005L23.8897 40.0005L25.6047 38.9715ZM29.3898 45.28L31.1047 44.251L31.1047 44.251L29.3898 45.28ZM32.8197 45.28L31.1047 44.251L31.1047 44.251L32.8197 45.28ZM36.6048 38.9715L34.8899 37.9425L34.8898 37.9425L36.6048 38.9715ZM30.6959 16.6828L29.0619 17.836L30.6944 20.1492L32.329 17.8374L30.6959 16.6828ZM31.5114 26.3514L32.7331 27.935L32.7331 27.935L31.5114 26.3514ZM30.6959 27L29.3215 28.4529L30.6912 29.7486L32.0654 28.4576L30.6959 27ZM29.7469 26.2712L28.5561 27.878L28.5561 27.878L29.7469 26.2712ZM2 4C2 2.89543 2.89543 2 4 2V-2C0.686289 -2 -2 0.686298 -2 4H2ZM2 33.0295V4H-2V33.0295H2ZM4 35.0295C2.89543 35.0295 2 34.134 2 33.0295H-2C-2 36.3432 0.686288 39.0295 4 39.0295V35.0295ZM22.1747 35.0295H4V39.0295H22.1747V35.0295ZM27.3196 37.9425C26.2353 36.1353 24.2823 35.0295 22.1747 35.0295V39.0295C22.8772 39.0295 23.5282 39.3981 23.8897 40.0005L27.3196 37.9425ZM31.1047 44.251L27.3196 37.9425L23.8897 40.0005L27.6748 46.309L31.1047 44.251ZM31.1047 44.251H31.1047L27.6748 46.309C29.2284 48.8983 32.9811 48.8983 34.5347 46.309L31.1047 44.251ZM34.8898 37.9425L31.1047 44.251L34.5347 46.309L38.3198 40.0005L34.8898 37.9425ZM40.0348 35.0295C37.9272 35.0295 35.9742 36.1352 34.8899 37.9425L38.3198 40.0005C38.6813 39.3981 39.3323 39.0295 40.0348 39.0295V35.0295ZM57.4689 35.0295H40.0348V39.0295H57.4689V35.0295ZM59.4689 33.0294C59.4689 34.134 58.5735 35.0295 57.4689 35.0295V39.0295C60.7826 39.0295 63.4689 36.3432 63.4689 33.0294H59.4689ZM59.4689 4V33.0294H63.4689V4H59.4689ZM57.4689 2C58.5735 2 59.4689 2.89543 59.4689 4H63.4689C63.4689 0.68629 60.7826 -2 57.4689 -2V2ZM4 2H57.4689V-2H4V2ZM32.33 15.5296C30.4916 12.9246 27.6109 11.7271 25.0207 12.0519C23.7197 12.215 22.4504 12.7739 21.4965 13.7895C20.5263 14.8225 20 16.2042 20 17.775H24C24 17.1263 24.2012 16.7525 24.4122 16.5279C24.6394 16.2859 25.005 16.0852 25.5184 16.0208C26.5574 15.8905 28.0247 16.3663 29.0619 17.836L32.33 15.5296ZM41 17.775C41 16.248 40.5217 14.886 39.6073 13.8497C38.701 12.8225 37.4757 12.2398 36.1961 12.0669C33.6462 11.7225 30.8747 12.9657 29.0629 15.5281L32.329 17.8374C33.3983 16.3251 34.7788 15.9118 35.6607 16.0309C36.0969 16.0899 36.4074 16.2689 36.608 16.4961C36.8004 16.7143 37 17.0994 37 17.775H41ZM32.7331 27.935C33.795 27.1158 35.761 25.6016 37.4652 23.9152C38.3162 23.0731 39.157 22.1349 39.7976 21.1693C40.4094 20.247 41 19.0622 41 17.775H37C37 17.8874 36.9221 18.268 36.4643 18.9582C36.0352 19.605 35.4053 20.3263 34.6517 21.072C33.1468 22.5612 31.3686 23.9357 30.2898 24.7679L32.7331 27.935ZM32.0654 28.4576C32.0481 28.4738 32.0499 28.4709 32.0885 28.439C32.1223 28.4111 32.1694 28.3733 32.2328 28.3232C32.3607 28.2223 32.5258 28.0949 32.7331 27.935L30.2898 24.7679C29.9406 25.0373 29.5342 25.3473 29.3265 25.5424L32.0654 28.4576ZM28.5561 27.878C28.8008 28.0594 28.9953 28.2036 29.1445 28.3171C29.2186 28.3735 29.2725 28.4154 29.31 28.4456C29.3549 28.4817 29.3498 28.4796 29.3215 28.4529L32.0704 25.5471C31.8324 25.322 31.3422 24.9641 30.9378 24.6644L28.5561 27.878ZM20 17.775C20 19.0729 20.6159 20.2546 21.2414 21.1612C21.8986 22.1138 22.761 23.0379 23.6351 23.8682C25.3861 25.5314 27.4181 27.0347 28.5561 27.878L30.9378 24.6644C29.7799 23.8063 27.9385 22.4389 26.3899 20.968C25.6143 20.2313 24.9704 19.5226 24.5338 18.8897C24.0655 18.2109 24 17.8545 24 17.775H20Z" fill="#138085" mask="url(#path-1-inside-1)"/>
</svg>
